<?xml version="1.0" encoding="UTF-8"?>
<!DOCTYPE svg PUBLIC "-//W3C//DTD SVG 1.1//EN" "http://www.w3.org/Graphics/SVG/1.1/DTD/svg11.dtd">
<!-- Creator: CorelDRAW 2020 (64-Bit) -->
<svg xmlns="http://www.w3.org/2000/svg" xml:space="preserve" width="188.13mm" height="153.815mm" version="1.1" style="shape-rendering:geometricPrecision; text-rendering:geometricPrecision; image-rendering:optimizeQuality; fill-rule:evenodd; clip-rule:evenodd"
viewBox="0 0 18798.75 15369.79"
 xmlns:xlink="http://www.w3.org/1999/xlink"
 xmlns:xodm="http://www.corel.com/coreldraw/odm/2003">
 <defs>
  <style type="text/css">
   <![CDATA[
    .fil1 {fill:#023353}
    .fil3 {fill:#34BEE1}
    .fil5 {fill:black;fill-rule:nonzero}
    .fil0 {fill:#023353;fill-rule:nonzero}
    .fil4 {fill:#34BEE1;fill-rule:nonzero}
    .fil2 {fill:white;fill-rule:nonzero}
   ]]>
  </style>
 </defs>
 <g id="Capa_x0020_1">
  <metadata id="CorelCorpID_0Corel-Layer"/>
  <g id="_2450291633040">
   <g>
    <path class="fil0" d="M14107.03 10692.35l-8537.55 0c-589.54,0 -1077.46,-570.26 -1077.46,-1259.44l0 -8173.71c0,-688.92 487.92,-1259.18 1077.46,-1259.18l8537.55 0c589.37,0 1077.3,570.27 1077.3,1259.18l0 8197.41c0,665.49 -487.93,1235.74 -1077.3,1235.74z"/>
    <g>
     <path class="fil1" d="M12064.2 106.71c421.03,-111.55 860.34,-149.74 1336.63,-45.75 585.36,127.79 1020,434.86 1315.38,853.44 318.05,450.71 468.8,1026.52 468.11,1641.24 -1.18,1013.23 -322.64,1983.04 -640.65,2942.53 -163.71,493.9 -326.49,985 -440.38,1469.18 -117.07,497.81 -167,1000.57 -217.02,1504.26 -32.37,325.93 -64.78,652.32 -114.59,979.38l0.03 0.9c-62.46,409.82 -246.28,728.04 -494.97,935.75 -131.9,110.19 -281.8,189.01 -441.64,233.87 -159.3,44.74 -327.8,55.42 -497.51,29.55l-0.91 0.03c-318.25,-48.5 -639.41,-225.08 -907.8,-546.41 -143.43,-171.68 -305.94,-333.35 -479.56,-446.96 -154.66,-101.22 -316.5,-162.38 -476.61,-151.19l-310.67 21.71 -22.08 21.37c-45.89,45.45 -91.3,97.09 -135.82,154 -19.79,25.3 -38.05,50 -54.37,73.76 -18,26.23 -34.31,51.67 -48.57,76.09l-23.39 33.47c-90.88,107.14 -174.9,224.71 -258.82,342.17 -181.3,253.76 -362.46,507.29 -631.7,703.78 -734.19,536.02 -1251.31,252.41 -1639.09,-278.76 -240.09,-328.85 -415.2,-746.08 -562.15,-1096.25 -57.26,-136.39 -110.08,-262.24 -157.64,-361.32 -431.6,-898.69 -970.3,-1721.37 -1511.75,-2548.27 -233,-355.84 -466.57,-712.53 -706.73,-1100.02 -336.42,-542.86 -632.56,-1142.69 -745.77,-1758.56 -117.48,-639.12 -40.42,-1290.37 382.61,-1907.94 388.67,-567.28 911.07,-895.83 1490.53,-1050.81 667.95,-178.64 1408.29,-122.12 2100.12,65l117.62 31.99c496.55,135.37 994.88,271.21 1477.17,218.25 52.38,-5.76 96.54,-11.64 133.04,-17.58 33.37,-5.43 77.89,-14.08 131.92,-25.46l793.81 -167.29c60.72,-40.02 121.92,-79.82 184.08,-119.37 128.76,-81.93 261.23,-162.32 401.64,-240.54l15.18 -7.76c382.59,-178.85 765.08,-353.62 1172.35,-461.51z"/>
     <path class="fil2" d="M13352.09 287.79c-872.57,-190.5 -1616.34,141.79 -2362.41,490.55 -269.31,150.05 -515.74,313.17 -765.38,480.68 -260.61,177.51 -525.86,357.54 -815.54,510.72 -289.43,154.47 -604.53,271.17 -926.59,335.11 -321.87,65.47 -653.27,84.41 -975.53,35.54 314.42,-84.22 615.78,-170.3 907.97,-276.31 291.55,-109.07 571.35,-232 843.92,-378.58 95.2,-50.14 190.31,-102.43 286.16,-155.06 -94.6,19.94 -190.36,35.83 -287.53,46.52 -564.47,61.98 -1123.32,-106.73 -1680.39,-257.35 -1209.62,-327.18 -2565.14,-235.98 -3338.59,892.93 -767.02,1119.71 -277.6,2371.59 368.32,3413.86 758.86,1224.35 1604,2364.14 2231.02,3669.68 350.48,729.95 836.72,2509.04 2013.66,1649.78 359.01,-262.04 565.1,-673.37 849.98,-1009.19 35.86,-61.39 76.52,-119.97 120.22,-175.86 95.25,-121.77 205.59,-232.39 329.47,-326.35 123.4,-94.7 260.88,-172.63 407.82,-228 146.13,-55 305.64,-86.86 461.32,-66.98 -140.14,68.45 -265.29,139.65 -387.21,217.04 -59.84,38.16 -118.3,78.02 -175.96,118.99 432.89,-30.24 835.89,305.18 1149.62,680.69 698.96,836.84 1774.69,519.9 1936.16,-539.32 127.35,-835.99 139.94,-1674.01 334.64,-2501.89 336.32,-1429.86 1073.8,-2869.89 1075.53,-4358.87 1.22,-1086.01 -499.06,-2027.79 -1600.7,-2268.31z"/>
    </g>
    <g>
     <polygon class="fil0" points="9742.73,4868.57 10287.87,4868.57 10287.87,4323.27 9742.73,4323.27 "/>
     <polygon class="fil0" points="10674.68,4868.57 11219.8,4868.57 11219.8,4323.27 10674.68,4323.27 "/>
     <polygon class="fil0" points="8810.75,5800.58 9355.86,5800.58 9355.86,5255.26 8810.75,5255.26 "/>
     <path class="fil3" d="M8837.16 4842.15l492.28 0 0 -492.45 -492.28 0 0 492.45zm-26.43 26.43l545.14 0 0 -545.31 -545.14 0 0 545.31z"/>
     <polygon class="fil0" points="7878.72,6732.53 8423.88,6732.53 8423.88,6187.24 7878.72,6187.24 "/>
     <polygon class="fil0" points="7878.72,5800.58 8423.88,5800.58 8423.88,5255.26 7878.72,5255.26 "/>
     <polygon class="fil0" points="7878.72,4868.57 8423.88,4868.57 8423.88,4323.27 7878.72,4323.27 "/>
     <path class="fil0" d="M11063.87 5412.59c-227.78,22.79 -445.01,112.28 -620.35,260.63l100.23 100.17c44.84,44.86 44.84,116.53 0,161.43 -18.02,26.94 -44.86,35.89 -80.74,35.89 -26.88,0 -53.75,-8.95 -80.72,-35.89l-98.97 -99.04c-149.08,179.33 -239.13,392.31 -262.15,619.15l154.96 0c62.75,0 116.47,53.82 116.47,116.55 -8.89,62.86 -62.77,116.61 -116.47,116.61l-154.75 0c15.14,144.13 58.14,282.41 124.33,414.81 37.74,75.34 83.83,142.25 135.57,206.39l110.02 -109.95c44.85,-44.88 116.56,-44.88 161.43,0 44.85,44.75 44.85,116.57 0,161.34l-113.25 113.3c180.47,151.61 395.37,243.01 624.41,266.15l0 -164.23c0,-62.77 53.8,-116.48 116.58,-116.48 62.76,0 116.55,53.71 116.55,116.48l0 164.23c230.04,-23.06 449.22,-114.11 625.41,-265.15l-114.24 -114.3c-44.86,-44.77 -44.86,-116.59 0,-161.34 44.86,-44.88 116.58,-44.88 161.44,0l112.21 112.14c148.5,-180.77 237.31,-395.23 258.49,-623.4l-146.51 0c-62.77,0 -116.59,-53.75 -116.59,-116.61 0,-62.73 53.82,-116.55 116.59,-116.55l144.63 0c-24.57,-226.48 -115.19,-442.12 -264.09,-615.85l-95.72 95.75c-26.91,26.94 -53.88,35.89 -80.76,35.89 -26.92,0 -53.8,-8.95 -80.74,-35.89 -44.77,-44.9 -44.77,-116.57 0,-161.43l93.88 -93.8c-31.55,-25.73 -64.26,-49.13 -96.98,-67.85 -153.98,-115.41 -333.28,-179.99 -517.03,-199l0 145.49c0,62.77 -53.79,116.59 -116.55,116.59 -62.78,0 -116.58,-53.82 -116.58,-116.59l0 -145.65zm116.41 1392.16c-27.94,0 -55.97,-9.28 -83.85,-37.28l-466.01 -466.02c-46.61,-46.61 -46.61,-121.17 0,-167.76 46.6,-46.62 121.05,-46.62 167.68,0l410.13 410.08 391.49 -195.69c55.85,-28.02 130.45,-9.29 158.38,55.92 27.91,55.93 9.29,130.48 -55.92,158.39l-466.02 233.08c-18.59,9.28 -37.32,9.28 -55.9,9.28zm-1210.31 465.92l-2527.01 0c-186.4,0 -344.86,-149.07 -344.86,-326.14l0 -3056.91 0 -484.7c0,-177.1 158.46,-326.16 344.86,-326.16l246.15 0c48.96,-205.37 230.6,-354.12 452.85,-354.12 222.23,0 403.93,148.75 452.94,354.12l28.44 0c52.18,-200.5 231.68,-344.82 450.63,-344.82 218.85,0 398.4,144.32 450.6,344.82l30.78 0c52.21,-200.5 231.76,-344.82 450.62,-344.82 218.93,0 398.45,144.32 450.63,344.82l30.77 0c52.19,-200.5 231.74,-344.82 450.6,-344.82 218.86,0 398.42,144.32 450.61,344.82l257.69 0c186.38,0 344.86,149.07 344.86,326.16l0 2026.35c65.15,45.91 124.11,94.07 177.09,154.59 260.91,260.9 410.06,615.07 410.06,987.8 0,372.87 -149.15,727.02 -410.06,988.05 -261,260.91 -615.06,409.99 -987.91,409.99 -372.79,0 -726.92,-149.08 -987.96,-409.99 -85.14,-85.26 -157.52,-183.37 -222.35,-289.04zm1778.85 -1978.26l0 -1283.64 -4417.72 0 0 2945.08c0,46.6 46.61,93.24 111.86,93.24l2422.87 0c-53.22,-150.89 -83.59,-310.58 -83.59,-475.43 0,-372.73 149.16,-726.9 410.08,-987.8 261.04,-261.01 615.17,-410.1 987.96,-410.1 196.82,0 388.75,39.54 568.54,118.65zm-3802.7 -2215.66l410.38 0c-39.02,-72.68 -115.46,-121.14 -205.12,-121.14 -89.77,0 -166.22,48.45 -205.25,121.14zm205.25 587.18c-65.37,0 -121.27,-55.95 -121.27,-121.17 0,-65.23 55.9,-121.15 121.27,-121.15 81.77,0 152.53,-40.31 193.96,-102.54l-902.39 0c-65.24,0 -111.86,37.22 -111.86,93.24l0 354.14 4417.72 0 0 -354.14c0,-46.63 -46.62,-93.24 -111.87,-93.24l-247.74 0c-50.07,200.55 -223.02,344.86 -441.93,344.86 -65.33,0 -121.18,-55.95 -121.18,-121.17 0,-65.23 55.85,-121.15 121.18,-121.15 81.77,0 152.59,-40.31 194.05,-102.54l-548.24 0 -135.86 0c-50.09,200.55 -223.09,344.86 -441.95,344.86 -65.29,0 -121.18,-55.95 -121.18,-121.17 0,-65.23 55.89,-121.15 121.18,-121.15 81.79,0 152.62,-40.31 194.1,-102.54l-548.17 0 -136 0c-50.06,200.55 -223,344.86 -441.95,344.86 -65.24,0 -121.04,-55.95 -121.04,-121.17 0,-65.23 55.8,-121.15 121.04,-121.15 81.86,0 152.67,-40.31 194.1,-102.54l-548.24 0 -138.1 0c-52.79,198.27 -223.93,344.86 -439.64,344.86zm730.58 -587.18l406.55 0c-39.03,-72.68 -115.5,-121.14 -205.25,-121.14 -86.82,0 -161.22,49.55 -201.3,121.14zm931.93 0l406.64 0c-39.08,-72.68 -115.59,-121.14 -205.25,-121.14 -86.83,0 -161.28,49.55 -201.39,121.14zm931.98 0l406.62 0c-39.06,-72.68 -115.55,-121.14 -205.21,-121.14 -86.89,0 -161.32,49.55 -201.41,121.14z"/>
     <path class="fil4" d="M9115.17 4835.48c-24.56,0 -49.23,-8.95 -73.81,-35.84l-164.13 -179.57c-41.05,-44.89 -41.05,-116.59 0,-161.49 41.05,-44.9 106.68,-44.9 147.75,0l90.19 98.67 287.29 -305.7c41.05,-44.92 106.75,-44.92 147.73,0 41.05,44.87 41.05,116.72 0,161.62l-361.11 386.48c-16.47,26.89 -41.05,35.84 -73.91,35.84z"/>
    </g>
   </g>
   <path class="fil0" d="M1191.14 14027.84c-351.28,0 -637.69,-116.68 -859.19,-349.42 -221.51,-232.73 -331.95,-544.1 -331.95,-934.07 0,-372.51 106.07,-680.74 317.59,-924.09 211.53,-242.73 505.42,-364.39 881.04,-364.39 347.55,0 631.45,114.8 850.46,343.8 219,229 328.2,534.74 328.2,917.22 0,396.22 -110.45,713.82 -331.33,952.8 -220.88,238.98 -505.41,358.16 -854.83,358.16zm-3.12 -565.31c129.79,0 223.38,-56.79 280.16,-169.72 56.79,-112.93 85.49,-319.47 85.49,-619.6 0,-434.9 -117.3,-652.04 -351.29,-652.04 -252.7,0 -378.74,247.71 -378.74,743.77 0,464.85 121.68,697.59 364.39,697.59z"/>
   <path id="1" class="fil0" d="M4488.79 13990.4l-685.11 0 0 -247.09c-101.08,189.69 -267.69,284.53 -499.8,284.53 -214.02,0 -387.48,-83.62 -521,-250.84 -132.91,-167.84 -199.67,-411.19 -199.67,-730.04 0,-298.25 66.76,-535.35 200.92,-710.69 133.53,-175.34 310.73,-262.69 530.99,-262.69 184.07,0 335.7,69.89 454.87,210.28l0 -790.57 718.8 0 0 2497.11zm-718.8 -1194.89c0,-166.59 -68.64,-250.21 -205.28,-250.21 -96.1,0 -158.49,53.04 -188.44,159.12 -29.33,106.07 -44.31,235.85 -44.31,389.34 0,300.75 76.12,451.13 229,451.13 58.03,0 107.32,-23.71 147.88,-71.13 40.56,-47.42 61.15,-120.43 61.15,-217.76l0 -460.49z"/>
   <path id="2" class="fil0" d="M5781.63 14027.84c-308.25,0 -552.83,-96.1 -734.41,-287.65 -181.57,-192.18 -272.66,-417.43 -272.66,-675.75 0,-277.67 94.84,-509.15 284.52,-694.47 189.06,-185.32 435.53,-277.67 739.4,-277.67 305.74,0 551.58,91.1 737.52,273.92 185.94,182.82 278.91,411.82 278.91,687.61 0,277.66 -94.22,509.15 -282.66,695.09 -188.44,185.95 -438.02,278.92 -750.62,278.92zm11.23 -441.76c112.3,0 181.57,-58.66 205.9,-176.59 24.96,-117.3 37.44,-240.23 37.44,-368.14 0,-174.71 -17.48,-300.12 -52.42,-376.87 -35.56,-76.74 -97.96,-115.43 -189.06,-115.43 -83.62,0 -144.76,39.94 -183.44,119.18 -38.69,79.24 -58.04,209.65 -58.04,391.22 0,213.4 19.96,354.41 59.9,423.05 39.93,69.26 99.83,103.58 179.7,103.58z"/>
   <path id="3" class="fil0" d="M8910.81 13990.4l-730.04 0 0 -1171.18c0,-96.72 -14.35,-157.86 -44.31,-184.69 -29.95,-26.83 -66.76,-40.56 -111.69,-40.56 -132.28,0 -198.42,92.97 -198.42,278.29l0 1118.14 -730.04 0 0 -1860.66 677.63 0 0 263.31c99.83,-200.29 278.28,-300.75 534.73,-300.75 135.4,0 248.96,26.21 342.55,78 92.97,51.79 159.74,118.55 199.67,200.92 39.94,82.36 59.9,225.25 59.9,428.65l0 1190.53z"/>
   <path id="4" class="fil0" d="M10444.51 12129.74l0 471.71 -370.64 0 0 685.74c0,94.22 17.48,149.75 53.04,167.22 34.94,18.1 71.76,26.83 109.2,26.83 58.66,0 127.91,-9.98 208.4,-29.95l0 520.39c-143.51,27.45 -285.15,41.18 -423.67,41.18 -224.63,0 -389.35,-48.04 -494.8,-144.76 -104.83,-96.09 -157.86,-250.21 -157.86,-461.11l1.87 -217.76 0 -587.77 -277.04 0 0 -471.71 277.04 0 11.23 -606.49 692.59 -11.23 0 617.72 370.64 0z"/>
   <path id="5" class="fil0" d="M11595.72 14027.84c-308.25,0 -552.83,-96.1 -734.41,-287.65 -181.57,-192.18 -272.66,-417.43 -272.66,-675.75 0,-277.67 94.84,-509.15 284.52,-694.47 189.06,-185.32 435.53,-277.67 739.4,-277.67 305.74,0 551.58,91.1 737.52,273.92 185.94,182.82 278.91,411.82 278.91,687.61 0,277.66 -94.22,509.15 -282.66,695.09 -188.44,185.95 -438.02,278.92 -750.62,278.92zm11.23 -441.76c112.3,0 181.57,-58.66 205.9,-176.59 24.96,-117.3 37.44,-240.23 37.44,-368.14 0,-174.71 -17.48,-300.12 -52.42,-376.87 -35.56,-76.74 -97.96,-115.43 -189.06,-115.43 -83.62,0 -144.76,39.94 -183.44,119.18 -38.69,79.24 -58.04,209.65 -58.04,391.22 0,213.4 19.96,354.41 59.9,423.05 39.93,69.26 99.83,103.58 179.7,103.58z"/>
   <path id="6" class="fil4" d="M12678.3 13264.73l711.31 -127.91c59.9,202.17 212.78,303.25 460.49,303.25 192.18,0 288.27,-51.17 288.27,-153.49 0,-53.67 -22.46,-95.47 -66.77,-124.8 -44.3,-29.95 -123.54,-56.79 -238.35,-79.25 -436.78,-83.61 -717.56,-193.42 -841.73,-328.2 -124.17,-135.4 -185.94,-294.51 -185.94,-477.33 0,-235.24 89.23,-431.16 267.69,-587.15 178.44,-155.99 434.9,-233.98 769.97,-233.98 507.9,0 842.97,204.04 1006.46,612.74l-632.7 192.17c-66.14,-167.22 -199.67,-250.83 -400.59,-250.83 -167.22,0 -250.83,51.79 -250.83,155.36 0,46.17 18.72,82.37 56.78,107.95 37.44,25.58 110.45,49.29 219.01,72.38 298.87,61.77 511.02,116.68 636.44,164.74 125.41,47.41 230.25,130.4 313.85,248.96 83.62,117.92 125.42,257.07 125.42,417.42 0,252.71 -102.33,457.99 -307,615.23 -204.65,157.24 -473.58,235.86 -806.16,235.86 -607.74,0 -983.36,-254.58 -1125.63,-763.11z"/>
   <path id="7" class="fil4" d="M16921.87 12129.74l-729.42 2015.4c-56.16,152.87 -136.65,271.42 -240.85,356.91 -104.83,85.49 -266.43,128.53 -484.19,128.53 -52.42,0 -174.09,-4.99 -365.02,-14.97l0 -520.39c95.47,14.97 182.82,22.46 263.94,22.46 209.65,0 314.47,-44.93 314.47,-134.78 0,-30.58 -9.98,-72.39 -31.2,-126.04l-667.01 -1727.13 779.96 0 305.12 985.86 321.34 -985.86 532.87 0z"/>
   <path id="8" class="fil4" d="M16904.4 13462.53l576.54 -78.62c33.06,134.78 164.1,202.17 393.09,202.17 189.69,0 284.52,-36.82 284.52,-109.83 0,-31.82 -18.09,-56.16 -54.91,-74.24 -36.81,-17.48 -124.17,-35.57 -260.81,-53.67 -379.99,-52.41 -616.47,-134.15 -710.69,-245.83 -94.22,-111.07 -141.64,-235.24 -141.64,-371.89 0,-190.31 79.24,-344.43 238.35,-461.73 159.11,-117.93 367.52,-176.59 625.84,-176.59 452.38,0 740.65,162.24 865.44,487.32l-550.34 104.2c-51.78,-109.82 -160.98,-164.73 -326.95,-164.73 -78.62,0 -137.9,10.6 -176.59,31.82 -38.68,21.84 -58.03,42.44 -58.03,63.65 0,60.52 58.66,97.96 175.96,111.07 305.12,34.31 512.27,68.63 620.85,104.2 108.57,34.94 201.54,99.83 278.29,193.42 76.74,94.22 115.43,207.78 115.43,340.69 0,203.41 -84.87,365.01 -255.21,484.81 -170.34,119.18 -404.95,179.08 -703.83,179.08 -504.17,0 -815.52,-188.44 -935.32,-565.31z"/>
   <path class="fil5" d="M1452.28 15023.54c0,130.18 110.06,144.27 188.57,155 44.29,6.05 78.51,13.43 78.51,39.6 0,28.85 -26.85,38.24 -71.81,38.24 -37.57,0 -63.75,-12.07 -75.82,-35.56 -10.07,-19.46 -19.47,-21.47 -39.59,-14.76l-63.08 22.81c-19.46,7.38 -25.5,16.78 -18.12,36.9 25.5,69.79 95.29,104.01 195.27,104.01 118.77,0 208.02,-54.35 208.02,-152.99 0,-126.82 -100.66,-145.61 -178.49,-156.35 -48.31,-6.04 -87.91,-12.07 -87.91,-40.93 0,-23.48 18.13,-34.89 63.75,-34.89 30.87,0 55.03,9.39 67.78,34.89 10.73,19.46 18.12,22.14 36.23,14.09l67.1 -28.85c20.13,-8.05 25.5,-18.13 16.11,-37.58 -31.54,-64.42 -87.9,-93.95 -187.22,-93.95 -128.16,0 -199.3,61.74 -199.3,150.32z"/>
   <path id="1" class="fil5" d="M1901.21 14910.14l0 422.75c0,20.12 6.7,26.84 26.84,26.84l79.19 0c20.13,0 26.84,-6.71 26.84,-26.84l0 -422.75c0,-20.13 -6.7,-26.84 -26.84,-26.84l-79.19 0c-20.13,0 -26.84,6.7 -26.84,26.84z"/>
   <path id="2" class="fil5" d="M2087.09 15023.54c0,130.18 110.06,144.27 188.57,155 44.29,6.05 78.51,13.43 78.51,39.6 0,28.85 -26.85,38.24 -71.81,38.24 -37.57,0 -63.75,-12.07 -75.82,-35.56 -10.07,-19.46 -19.47,-21.47 -39.59,-14.76l-63.08 22.81c-19.46,7.38 -25.5,16.78 -18.12,36.9 25.5,69.79 95.29,104.01 195.27,104.01 118.77,0 208.02,-54.35 208.02,-152.99 0,-126.82 -100.66,-145.61 -178.49,-156.35 -48.31,-6.04 -87.91,-12.07 -87.91,-40.93 0,-23.48 18.13,-34.89 63.75,-34.89 30.87,0 55.03,9.39 67.78,34.89 10.73,19.46 18.12,22.14 36.23,14.09l67.1 -28.85c20.13,-8.05 25.5,-18.13 16.11,-37.58 -31.54,-64.42 -87.9,-93.95 -187.22,-93.95 -128.16,0 -199.3,61.74 -199.3,150.32z"/>
   <path id="3" class="fil5" d="M2870.87 14883.3l-332.18 0c-21.47,0 -28.18,7.37 -28.18,28.18l0 60.39c0,21.47 6.7,28.86 28.18,28.86l99.98 0 0 330.82c0,20.79 6.71,28.18 28.19,28.18l75.82 0c21.47,0 28.86,-7.38 28.86,-28.18l0 -330.82 99.32 0c21.46,0 28.85,-7.38 28.85,-28.86l0 -60.39c0,-20.8 -7.38,-28.18 -28.85,-28.18z"/>
   <path id="4" class="fil5" d="M3250.67 14883.3l-281.17 0c-21.47,0 -28.85,7.37 -28.85,28.18l0 420.07c0,20.79 7.37,28.18 28.85,28.18l287.2 0c20.8,0 28.19,-7.38 28.19,-28.18l0 -61.06c0,-21.47 -7.38,-28.19 -28.19,-28.19l-183.19 0 0 -64.42 141.59 0c21.47,0 28.85,-7.37 28.85,-28.85l0 -60.39c0,-20.8 -7.37,-28.19 -28.85,-28.19l-141.59 0 0 -59.71 177.16 0c21.47,0 28.85,-7.38 28.85,-28.86l0 -60.39c0,-20.8 -7.37,-28.18 -28.85,-28.18z"/>
   <path id="5" class="fil5" d="M3792.88 14882.63l-67.12 0c-22.14,0 -28.18,3.35 -37.57,21.46l-110.73 216.75 -110.72 -217.42c-9.39,-16.78 -16.11,-20.79 -39.59,-20.79l-63.08 0c-21.47,0 -28.85,6.7 -28.85,28.18l0 421.41c0,20.79 7.37,27.51 28.85,27.51l68.45 0c21.47,0 28.86,-6.71 28.86,-27.51l0 -95.29c0,-46.3 -3.36,-79.86 -27.52,-176.49l6.71 0c6.7,23.49 27.51,85.23 41.6,110.73l39.6 75.82c7.37,14.77 14.09,19.47 32.21,19.47l44.96 0c18.12,0 24.83,-6.05 32.22,-19.47l37.57 -75.82c14.09,-27.52 38.25,-88.58 44.97,-110.73l7.37 0c-25.5,89.25 -29.53,131.53 -29.53,175.82l0 95.96c0,20.79 6.71,27.51 28.19,27.51l73.15 0c21.47,0 28.85,-6.71 28.85,-27.51l0 -421.41c0,-21.47 -7.37,-28.18 -28.85,-28.18z"/>
   <path id="6" class="fil5" d="M4314.27 15332.22l-154.89 -426.78c-6.71,-17.45 -15.44,-22.14 -34.89,-22.14l-76.38 0c-19.47,0 -28.19,4.03 -34.89,23.48l-154.23 425.44c-6.7,18.12 -2.68,27.51 18.01,27.51l70.46 0c33.55,0 42.28,-7.38 48.99,-28.18l15.43 -48.32 144.83 0 15.44 48.32c5.37,20.79 15.43,28.18 50.32,28.18l72.37 0c20.12,0 26.17,-9.39 19.46,-27.51zm-212.6 -232.85l24.82 78.51 -83.77 0 24.72 -79.18c13.42,-44.96 12.75,-93.27 12.75,-93.27l6.7 0c0,0 1.35,48.31 14.77,93.94z"/>
   <path id="7" class="fil5" d="M4647.77 14883.3l-163.74 0c-21.47,0 -28.85,7.37 -28.85,28.18l0 420.07c0,20.79 7.37,28.18 28.85,28.18l163.74 0c132.2,0 206.01,-72.48 206.01,-187.89l0 -100.65c0,-116.09 -73.81,-187.89 -206.01,-187.89zm73.15 189.9l0 96.63c0,47.64 -23.5,72.48 -77.85,72.48l-55.03 0 0 -241.57 55.03 0c54.35,0 77.85,24.82 77.85,72.47z"/>
   <path id="8" class="fil5" d="M5219.5 14883.3l-281.17 0c-21.47,0 -28.85,7.37 -28.85,28.18l0 420.07c0,20.79 7.37,28.18 28.85,28.18l287.2 0c20.8,0 28.19,-7.38 28.19,-28.18l0 -61.06c0,-21.47 -7.38,-28.19 -28.19,-28.19l-183.19 0 0 -64.42 141.59 0c21.47,0 28.85,-7.37 28.85,-28.85l0 -60.39c0,-20.8 -7.37,-28.19 -28.85,-28.19l-141.59 0 0 -59.71 177.16 0c21.47,0 28.85,-7.38 28.85,-28.86l0 -60.39c0,-20.8 -7.37,-28.18 -28.85,-28.18z"/>
   <path id="9" class="fil5" d="M5797.94 15085.95l-169.77 0c-20.8,0 -28.19,7.38 -28.19,28.86l0 50.32c0,21.47 7.38,28.19 28.19,28.19l64.42 0 0 13.42c0,28.86 -27.51,45.63 -72.47,45.63 -53.03,0 -73.82,-22.81 -73.82,-69.79l0 -122.13c0,-46.96 20.79,-69.79 73.82,-69.79 37.57,0 57.71,13.42 69.79,43.62 7.37,20.8 15.43,24.83 36.23,18.12l71.8 -25.49c20.13,-6.71 24.83,-16.78 18.12,-36.24 -28.18,-75.15 -92.6,-117.43 -195.93,-117.43 -132.21,0 -206.69,71.81 -206.69,187.89l0 120.79c0,116.09 74.48,187.89 206.69,187.89 132.19,0 206,-71.8 206,-166.41l0 -88.57c0,-21.47 -6.71,-28.86 -28.19,-28.86z"/>
   <path id="10" class="fil5" d="M6189.16 14883.3l-281.17 0c-21.47,0 -28.85,7.37 -28.85,28.18l0 420.07c0,20.79 7.37,28.18 28.85,28.18l287.2 0c20.8,0 28.19,-7.38 28.19,-28.18l0 -61.06c0,-21.47 -7.38,-28.19 -28.19,-28.19l-183.19 0 0 -64.42 141.59 0c21.47,0 28.85,-7.37 28.85,-28.85l0 -60.39c0,-20.8 -7.37,-28.19 -28.85,-28.19l-141.59 0 0 -59.71 177.16 0c21.47,0 28.85,-7.38 28.85,-28.86l0 -60.39c0,-20.8 -7.37,-28.18 -28.85,-28.18z"/>
   <path id="11" class="fil5" d="M6258.94 15023.54c0,130.18 110.06,144.27 188.57,155 44.29,6.05 78.51,13.43 78.51,39.6 0,28.85 -26.85,38.24 -71.81,38.24 -37.57,0 -63.75,-12.07 -75.82,-35.56 -10.07,-19.46 -19.47,-21.47 -39.59,-14.76l-63.08 22.81c-19.46,7.38 -25.5,16.78 -18.12,36.9 25.5,69.79 95.29,104.01 195.27,104.01 118.78,0 208.03,-54.35 208.03,-152.99 0,-126.82 -100.66,-145.61 -178.5,-156.35 -48.31,-6.04 -87.91,-12.07 -87.91,-40.93 0,-23.48 18.13,-34.89 63.75,-34.89 30.87,0 55.03,9.39 67.78,34.89 10.73,19.46 18.13,22.14 36.24,14.09l67.1 -28.85c20.13,-8.05 25.5,-18.13 16.11,-37.58 -31.54,-64.42 -87.9,-93.95 -187.23,-93.95 -128.16,0 -199.3,61.74 -199.3,150.32z"/>
   <path id="12" class="fil5" d="M7042.73 14883.3l-332.17 0c-21.47,0 -28.18,7.37 -28.18,28.18l0 60.39c0,21.47 6.7,28.86 28.18,28.86l99.98 0 0 330.82c0,20.79 6.71,28.18 28.19,28.18l75.82 0c21.47,0 28.86,-7.38 28.86,-28.18l0 -330.82 99.31 0c21.46,0 28.85,-7.38 28.85,-28.86l0 -60.39c0,-20.8 -7.38,-28.18 -28.85,-28.18z"/>
   <path id="13" class="fil5" d="M7112.52 14910.14l0 422.75c0,20.12 6.7,26.84 26.84,26.84l79.18 0c20.13,0 26.84,-6.71 26.84,-26.84l0 -422.75c0,-20.13 -6.7,-26.84 -26.84,-26.84l-79.18 0c-20.13,0 -26.84,6.7 -26.84,26.84z"/>
   <path id="14" class="fil5" d="M7515.14 14739.47l-94.63 54.36c-11.4,6.7 -12.07,12.75 -2.01,25.5l18.79 22.03c6.71,9.5 14.77,8.16 30.88,3.35l121.46 -37.46c16.78,-6.05 16.11,-13.42 4.03,-26.84l-34.22 -38.92c-13.42,-14.77 -28.85,-10.74 -44.29,-2.02zm-213.4 321.65l0 120.79c0,116.09 73.81,187.89 206.69,187.89 132.19,0 206,-71.8 206,-187.89l0 -120.79c0,-116.08 -73.81,-187.89 -206,-187.89 -132.88,0 -206.69,71.81 -206.69,187.89zm279.83 -6.04l0 132.87c0,42.27 -26.84,64.41 -73.13,64.41 -46.97,0 -73.82,-22.14 -73.82,-64.41l0 -132.87c0,-42.28 26.85,-64.42 73.82,-64.42 46.29,0 73.13,22.14 73.13,64.42z"/>
   <path id="15" class="fil5" d="M8145.24 14883.3l-68.45 0c-21.47,0 -28.19,7.37 -28.19,28.18l0 110.05c0,68.45 8.72,100.65 30.2,169.77l-5.37 0c-21.47,-50.99 -26.84,-76.49 -56.37,-122.8l-110.05 -171.78c-6.04,-9.39 -12.75,-13.42 -28.19,-13.42l-79.18 0c-21.47,0 -28.85,7.37 -28.85,28.18l0 420.07c0,20.79 7.37,28.18 28.85,28.18l67.78 0c21.47,0 28.85,-7.38 28.85,-28.18l0 -109.39c0,-74.48 -8.04,-108.71 -22.14,-173.12l5.38 0c18.12,60.39 29.52,91.93 59.05,138.23l103.34 159.04c6.04,9.39 13.42,13.42 27.51,13.42l75.83 0c20.79,0 28.18,-7.38 28.18,-28.18l0 -420.07c0,-20.8 -7.38,-28.18 -28.18,-28.18z"/>
   <path id="16" class="fil5" d="M8553.91 14883.3l-163.74 0c-21.48,0 -28.86,7.37 -28.86,28.18l0 420.07c0,20.79 7.37,28.18 28.86,28.18l163.74 0c132.19,0 206,-72.48 206,-187.89l0 -100.65c0,-116.09 -73.81,-187.89 -206,-187.89zm73.14 189.9l0 96.63c0,47.64 -23.49,72.48 -77.84,72.48l-55.03 0 0 -241.57 55.03 0c54.35,0 77.84,24.82 77.84,72.47z"/>
   <path id="17" class="fil5" d="M9125.63 14883.3l-281.17 0c-21.47,0 -28.85,7.37 -28.85,28.18l0 420.07c0,20.79 7.37,28.18 28.85,28.18l287.2 0c20.8,0 28.19,-7.38 28.19,-28.18l0 -61.06c0,-21.47 -7.38,-28.19 -28.19,-28.19l-183.19 0 0 -64.42 141.59 0c21.47,0 28.85,-7.37 28.85,-28.85l0 -60.39c0,-20.8 -7.37,-28.19 -28.85,-28.19l-141.59 0 0 -59.71 177.16 0c21.47,0 28.85,-7.38 28.85,-28.86l0 -60.39c0,-20.8 -7.37,-28.18 -28.85,-28.18z"/>
   <path id="18" class="fil5" d="M9650.39 14883.3l-332.17 0c-21.48,0 -28.19,7.37 -28.19,28.18l0 60.39c0,21.47 6.7,28.86 28.19,28.86l99.98 0 0 330.82c0,20.79 6.71,28.18 28.19,28.18l75.82 0c21.47,0 28.86,-7.38 28.86,-28.18l0 -330.82 99.31 0c21.46,0 28.85,-7.38 28.85,-28.86l0 -60.39c0,-20.8 -7.38,-28.18 -28.85,-28.18z"/>
   <path id="19" class="fil5" d="M9849.68 15190.63l0 -279.15c0,-20.8 -7.37,-28.18 -28.85,-28.18l-75.83 0c-21.47,0 -28.18,7.37 -28.18,28.18l0 273.11c0,112.73 69.79,185.2 201.98,185.2 132.87,0 202.66,-72.47 202.66,-185.2l0 -273.11c0,-20.8 -7.38,-28.18 -28.86,-28.18l-75.82 0c-21.47,0 -28.19,7.37 -28.19,28.18l0 279.15c0,39.59 -23.48,61.73 -69.79,61.73 -46.29,0 -69.12,-22.14 -69.12,-61.73z"/>
   <path id="20" class="fil5" d="M10404.64 14883.3l-191.25 0c-21.47,0 -28.85,7.37 -28.85,28.18l0 420.07c0,20.79 7.37,28.18 28.85,28.18l75.84 0c21.47,0 28.18,-7.38 28.18,-28.18l0 -130.18 15.44 0c27.51,0 38.92,11.4 50.32,34.22l42.95 91.93c10.74,23.48 26.17,32.21 61.73,32.21l72.48 0c22.14,0 26.84,-14.76 17.45,-32.89l-60.39 -114.74c-5.37,-10.73 -11.41,-20.12 -18.12,-28.86 45.63,-25.49 72.48,-72.47 72.48,-138.23 0,-104.01 -65.77,-161.72 -167.09,-161.72zm29.53 161.05c0,27.51 -16.11,44.96 -44.29,44.96l-72.48 0 0 -88.57 72.48 0c28.85,0 44.29,16.77 44.29,43.62z"/>
   <path id="21" class="fil5" d="M11002.53 14883.3l-68.45 0c-21.47,0 -28.19,7.37 -28.19,28.18l0 110.05c0,68.45 8.72,100.65 30.2,169.77l-5.37 0c-21.47,-50.99 -26.84,-76.49 -56.37,-122.8l-110.05 -171.78c-6.04,-9.39 -12.75,-13.42 -28.19,-13.42l-79.18 0c-21.47,0 -28.85,7.37 -28.85,28.18l0 420.07c0,20.79 7.37,28.18 28.85,28.18l67.78 0c21.47,0 28.85,-7.38 28.85,-28.18l0 -109.39c0,-74.48 -8.04,-108.71 -22.14,-173.12l5.38 0c18.12,60.39 29.52,91.93 59.05,138.23l103.34 159.04c6.04,9.39 13.42,13.42 27.51,13.42l75.83 0c20.79,0 28.18,-7.38 28.18,-28.18l0 -420.07c0,-20.8 -7.38,-28.18 -28.18,-28.18z"/>
   <path id="22" class="fil5" d="M11086.41 15061.12l0 120.79c0,116.09 73.82,187.89 206.69,187.89 132.19,0 206,-71.8 206,-187.89l0 -120.79c0,-116.08 -73.81,-187.89 -206,-187.89 -132.87,0 -206.69,71.81 -206.69,187.89zm279.83 -6.04l0 132.87c0,42.27 -26.84,64.41 -73.13,64.41 -46.97,0 -73.81,-22.14 -73.81,-64.41l0 -132.87c0,-42.28 26.84,-64.42 73.81,-64.42 46.29,0 73.13,22.14 73.13,64.42z"/>
   <path id="23" class="fil5" d="M11540.71 15023.54c0,130.18 110.06,144.27 188.57,155 44.29,6.05 78.51,13.43 78.51,39.6 0,28.85 -26.85,38.24 -71.81,38.24 -37.57,0 -63.75,-12.07 -75.82,-35.56 -10.07,-19.46 -19.47,-21.47 -39.59,-14.76l-63.08 22.81c-19.46,7.38 -25.5,16.78 -18.12,36.9 25.5,69.79 95.29,104.01 195.27,104.01 118.77,0 208.02,-54.35 208.02,-152.99 0,-126.82 -100.66,-145.61 -178.49,-156.35 -48.31,-6.04 -87.91,-12.07 -87.91,-40.93 0,-23.48 18.13,-34.89 63.75,-34.89 30.87,0 55.03,9.39 67.78,34.89 10.73,19.46 18.12,22.14 36.23,14.09l67.1 -28.85c20.13,-8.05 25.5,-18.13 16.11,-37.58 -31.54,-64.42 -87.9,-93.95 -187.22,-93.95 -128.16,0 -199.3,61.74 -199.3,150.32z"/>
   <path id="24" class="fil5" d="M12099.02 15061.12l0 120.79c0,116.09 73.81,187.89 206.68,187.89 132.19,0 206,-71.8 206,-187.89l0 -120.79c0,-116.08 -73.81,-187.89 -206,-187.89 -132.87,0 -206.68,71.81 -206.68,187.89zm279.82 -6.04l0 132.87c0,42.27 -26.84,64.41 -73.13,64.41 -46.97,0 -73.81,-22.14 -73.81,-64.41l0 -132.87c0,-42.28 26.84,-64.42 73.81,-64.42 46.29,0 73.13,22.14 73.13,64.42z"/>
   <path id="25" class="fil5" d="M12760.66 14883.3l-163.74 0c-21.47,0 -28.85,7.37 -28.85,28.18l0 420.07c0,20.79 7.37,28.18 28.85,28.18l163.74 0c132.19,0 206,-72.48 206,-187.89l0 -100.65c0,-116.09 -73.81,-187.89 -206,-187.89zm73.14 189.9l0 96.63c0,47.64 -23.49,72.48 -77.84,72.48l-55.03 0 0 -241.57 55.03 0c54.35,0 77.84,24.82 77.84,72.47z"/>
   <path id="26" class="fil5" d="M13010.96 15061.12l0 120.79c0,116.09 73.81,187.89 206.68,187.89 132.19,0 206,-71.8 206,-187.89l0 -120.79c0,-116.08 -73.81,-187.89 -206,-187.89 -132.87,0 -206.68,71.81 -206.68,187.89zm279.82 -6.04l0 132.87c0,42.27 -26.84,64.41 -73.13,64.41 -46.97,0 -73.81,-22.14 -73.81,-64.41l0 -132.87c0,-42.28 26.84,-64.42 73.81,-64.42 46.29,0 73.13,22.14 73.13,64.42z"/>
   <path id="27" class="fil5" d="M13854.45 14883.3l-68.45 0c-21.47,0 -28.19,7.37 -28.19,28.18l0 110.05c0,68.45 8.72,100.65 30.2,169.77l-5.37 0c-21.47,-50.99 -26.84,-76.49 -56.37,-122.8l-110.05 -171.78c-6.04,-9.39 -12.75,-13.42 -28.19,-13.42l-79.18 0c-21.47,0 -28.85,7.37 -28.85,28.18l0 420.07c0,20.79 7.37,28.18 28.85,28.18l67.78 0c21.47,0 28.85,-7.38 28.85,-28.18l0 -109.39c0,-74.48 -8.04,-108.71 -22.14,-173.12l5.38 0c18.12,60.39 29.52,91.93 59.05,138.23l103.34 159.04c6.04,9.39 13.42,13.42 27.51,13.42l75.83 0c20.79,0 28.18,-7.38 28.18,-28.18l0 -420.07c0,-20.8 -7.38,-28.18 -28.18,-28.18z"/>
   <path id="28" class="fil5" d="M14284.59 14883.3l-332.17 0c-21.47,0 -28.18,7.37 -28.18,28.18l0 60.39c0,21.47 6.7,28.86 28.18,28.86l99.98 0 0 330.82c0,20.79 6.71,28.18 28.19,28.18l75.82 0c21.47,0 28.86,-7.38 28.86,-28.18l0 -330.82 99.31 0c21.46,0 28.85,-7.38 28.85,-28.86l0 -60.39c0,-20.8 -7.38,-28.18 -28.85,-28.18z"/>
   <path id="29" class="fil5" d="M14336.93 15061.12l0 120.79c0,116.09 73.81,187.89 206.68,187.89 132.19,0 206,-71.8 206,-187.89l0 -120.79c0,-116.08 -73.81,-187.89 -206,-187.89 -132.87,0 -206.68,71.81 -206.68,187.89zm279.82 -6.04l0 132.87c0,42.27 -26.84,64.41 -73.13,64.41 -46.97,0 -73.81,-22.14 -73.81,-64.41l0 -132.87c0,-42.28 26.84,-64.42 73.81,-64.42 46.29,0 73.13,22.14 73.13,64.42z"/>
   <path id="30" class="fil5" d="M14910.67 14883.3l-75.83 0c-21.48,0 -28.86,7.37 -28.86,28.18l0 420.07c0,20.79 7.37,28.18 28.86,28.18l265.73 0c20.8,0 28.19,-7.38 28.19,-28.18l0 -61.06c0,-21.47 -7.38,-28.19 -28.19,-28.19l-161.72 0 0 -330.82c0,-20.8 -6.7,-28.18 -28.18,-28.18z"/>
   <path id="31" class="fil5" d="M15364.29 14739.47l-94.62 54.36c-11.4,6.7 -12.07,12.75 -2.01,25.5l18.79 22.03c6.71,9.5 14.77,8.16 30.87,3.35l121.46 -37.46c16.78,-6.05 16.11,-13.42 4.03,-26.84l-34.22 -38.92c-13.42,-14.77 -28.85,-10.74 -44.29,-2.02zm-213.39 321.65l0 120.79c0,116.09 73.81,187.89 206.68,187.89 132.19,0 206,-71.8 206,-187.89l0 -120.79c0,-116.08 -73.81,-187.89 -206,-187.89 -132.87,0 -206.68,71.81 -206.68,187.89zm279.82 -6.04l0 132.87c0,42.27 -26.84,64.41 -73.13,64.41 -46.97,0 -73.81,-22.14 -73.81,-64.41l0 -132.87c0,-42.28 26.84,-64.42 73.81,-64.42 46.29,0 73.13,22.14 73.13,64.42z"/>
   <path id="32" class="fil5" d="M15993.05 15085.95l-169.77 0c-20.79,0 -28.18,7.38 -28.18,28.86l0 50.32c0,21.47 7.38,28.19 28.18,28.19l64.42 0 0 13.42c0,28.86 -27.51,45.63 -72.47,45.63 -53.02,0 -73.81,-22.81 -73.81,-69.79l0 -122.13c0,-46.96 20.79,-69.79 73.81,-69.79 37.57,0 57.71,13.42 69.79,43.62 7.37,20.8 15.43,24.83 36.23,18.12l71.8 -25.49c20.13,-6.71 24.83,-16.78 18.12,-36.24 -28.18,-75.15 -92.6,-117.43 -195.93,-117.43 -132.21,0 -206.69,71.81 -206.69,187.89l0 120.79c0,116.09 74.48,187.89 206.69,187.89 132.19,0 206,-71.8 206,-166.41l0 -88.57c0,-21.47 -6.71,-28.86 -28.19,-28.86z"/>
   <path id="33" class="fil5" d="M16074.25 14910.14l0 422.75c0,20.12 6.7,26.84 26.84,26.84l79.18 0c20.13,0 26.84,-6.71 26.84,-26.84l0 -422.75c0,-20.13 -6.7,-26.84 -26.84,-26.84l-79.18 0c-20.13,0 -26.84,6.7 -26.84,26.84z"/>
   <path id="34" class="fil5" d="M16263.47 15061.12l0 120.79c0,116.09 74.48,187.89 206.68,187.89 103.33,0 167.75,-42.27 195.94,-117.43 6.71,-19.46 2.02,-29.52 -18.13,-36.23l-71.8 -25.5c-20.13,-7.38 -28.19,-2.68 -36.23,18.12 -10.74,28.86 -32.22,43.62 -69.79,43.62 -53.02,0 -73.81,-22.81 -73.81,-69.79l0 -122.13c0,-46.96 20.79,-69.79 73.81,-69.79 37.57,0 57.71,13.42 69.79,43.62 7.37,20.8 15.43,24.16 36.23,18.12l71.8 -25.49c20.14,-6.71 24.84,-16.78 18.13,-36.24 -28.19,-75.15 -92.61,-117.43 -195.94,-117.43 -132.2,0 -206.68,71.81 -206.68,187.89z"/>
   <path id="35" class="fil5" d="M16700.32 15061.12l0 120.79c0,116.09 73.81,187.89 206.68,187.89 132.19,0 206,-71.8 206,-187.89l0 -120.79c0,-116.08 -73.81,-187.89 -206,-187.89 -132.87,0 -206.68,71.81 -206.68,187.89zm279.82 -6.04l0 132.87c0,42.27 -26.84,64.41 -73.13,64.41 -46.97,0 -73.81,-22.14 -73.81,-64.41l0 -132.87c0,-42.28 26.84,-64.42 73.81,-64.42 46.29,0 73.13,22.14 73.13,64.42z"/>
   <path id="36" class="fil5" d="M17154.61 15023.54c0,130.18 110.06,144.27 188.57,155 44.29,6.05 78.51,13.43 78.51,39.6 0,28.85 -26.85,38.24 -71.81,38.24 -37.57,0 -63.75,-12.07 -75.82,-35.56 -10.07,-19.46 -19.47,-21.47 -39.59,-14.76l-63.08 22.81c-19.46,7.38 -25.5,16.78 -18.12,36.9 25.5,69.79 95.29,104.01 195.27,104.01 118.77,0 208.02,-54.35 208.02,-152.99 0,-126.82 -100.66,-145.61 -178.49,-156.35 -48.31,-6.04 -87.91,-12.07 -87.91,-40.93 0,-23.48 18.13,-34.89 63.75,-34.89 30.87,0 55.03,9.39 67.78,34.89 10.73,19.46 18.12,22.14 36.23,14.09l67.1 -28.85c20.13,-8.05 25.5,-18.13 16.11,-37.58 -31.54,-64.42 -87.9,-93.95 -187.22,-93.95 -128.16,0 -199.3,61.74 -199.3,150.32z"/>
  </g>
 </g>
</svg>
