<?xml version="1.0" encoding="UTF-8"?>
<!DOCTYPE svg PUBLIC "-//W3C//DTD SVG 1.1//EN" "http://www.w3.org/Graphics/SVG/1.1/DTD/svg11.dtd">
<!-- Creator: CorelDRAW 2020 (64-Bit) -->
<svg xmlns="http://www.w3.org/2000/svg" xml:space="preserve" width="188.13mm" height="154.089mm" version="1.1" style="shape-rendering:geometricPrecision; text-rendering:geometricPrecision; image-rendering:optimizeQuality; fill-rule:evenodd; clip-rule:evenodd"
viewBox="0 0 14740.96 12073.65"
 xmlns:xlink="http://www.w3.org/1999/xlink"
 xmlns:xodm="http://www.corel.com/coreldraw/odm/2003">
 <defs>
  <style type="text/css">
   <![CDATA[
    .fil1 {fill:#023353}
    .fil3 {fill:#34BEE1}
    .fil0 {fill:#023353;fill-rule:nonzero}
    .fil4 {fill:#34BEE1;fill-rule:nonzero}
    .fil2 {fill:white;fill-rule:nonzero}
   ]]>
  </style>
 </defs>
 <g id="Capa_x0020_1">
  <metadata id="CorelCorpID_0Corel-Layer"/>
  <g id="_2340016664880">
   <g>
    <path class="fil0" d="M11061.97 8384.36l-6694.69 0c-462.29,0 -844.89,-447.17 -844.89,-987.59l0 -6409.38c0,-540.21 382.6,-987.38 844.89,-987.38l6694.69 0c462.15,0 844.76,447.17 844.76,987.38l0 6427.97c0,521.84 -382.61,969 -844.76,969z"/>
    <g>
     <path class="fil1" d="M9460.09 83.68c330.15,-87.47 674.63,-117.42 1048.11,-35.87 459,100.21 799.83,340.99 1031.45,669.22 249.4,353.42 367.61,804.94 367.07,1286.97 -0.92,794.52 -252.99,1554.99 -502.37,2307.37 -128.37,387.29 -256.02,772.39 -345.32,1152.05 -91.8,390.36 -130.95,784.59 -170.17,1179.56 -25.38,255.58 -50.8,511.51 -89.86,767.97l0.02 0.71c-48.98,321.36 -193.12,570.89 -388.13,733.76 -103.43,86.4 -220.97,148.21 -346.31,183.39 -124.91,35.08 -257.04,43.46 -390.12,23.17l-0.71 0.02c-249.55,-38.03 -501.39,-176.49 -711.85,-428.46 -112.47,-134.62 -239.9,-261.39 -376.04,-350.48 -121.28,-79.37 -248.18,-127.33 -373.73,-118.55l-243.61 17.03 -17.32 16.76c-35.98,35.64 -71.59,76.13 -106.5,120.76 -15.52,19.84 -29.84,39.21 -42.63,57.84 -14.11,20.57 -26.91,40.52 -38.09,59.67l-18.34 26.25c-71.26,84.01 -137.15,176.21 -202.96,268.31 -142.17,198.98 -284.22,397.79 -495.35,551.86 -575.71,420.32 -981.21,197.93 -1285.28,-218.59 -188.26,-257.87 -325.57,-585.04 -440.81,-859.62 -44.9,-106.95 -86.32,-205.64 -123.61,-283.32 -338.44,-704.7 -760.86,-1349.81 -1185.44,-1998.21 -182.71,-279.03 -365.86,-558.73 -554.18,-862.57 -263.81,-425.68 -496.02,-896.04 -584.8,-1378.96 -92.12,-501.16 -31.69,-1011.84 300.02,-1496.11 304.77,-444.83 714.41,-702.46 1168.79,-823.99 523.77,-140.08 1104.31,-95.76 1646.8,50.97l92.23 25.08c389.37,106.15 780.13,212.67 1158.32,171.14 41.07,-4.51 75.7,-9.13 104.32,-13.78 26.17,-4.25 61.08,-11.04 103.44,-19.96l622.46 -131.18c47.62,-31.38 95.6,-62.59 144.35,-93.6 100.97,-64.24 204.84,-127.28 314.94,-188.62l11.9 -6.09c300.01,-140.25 599.93,-277.29 919.29,-361.89z"/>
     <path class="fil2" d="M10469.99 225.67c-684.22,-149.38 -1267.45,111.19 -1852.47,384.66 -211.17,117.66 -404.41,245.57 -600.17,376.92 -204.36,139.19 -412.35,280.36 -639.5,400.48 -226.96,121.13 -474.04,212.64 -726.58,262.77 -252.39,51.34 -512.26,66.19 -764.96,27.87 246.55,-66.04 482.86,-133.54 711.98,-216.67 228.62,-85.52 448.02,-181.92 661.76,-296.86 74.65,-39.32 149.23,-80.32 224.39,-121.59 -74.18,15.64 -149.27,28.1 -225.47,36.48 -442.63,48.6 -880.85,-83.69 -1317.67,-201.8 -948.52,-256.56 -2011.45,-185.04 -2617.94,700.19 -601.45,878.02 -217.68,1859.67 288.82,2676.96 595.06,960.07 1257.77,1853.83 1749.44,2877.56 274.83,572.38 656.11,1967.45 1579.01,1293.67 281.51,-205.48 443.12,-528.02 666.5,-791.36 28.12,-48.14 60,-94.07 94.27,-137.9 74.69,-95.48 161.22,-182.23 258.35,-255.91 96.76,-74.26 204.57,-135.37 319.79,-178.78 114.59,-43.13 239.66,-68.11 361.74,-52.52 -109.89,53.67 -208.03,109.51 -303.63,170.19 -46.93,29.92 -92.76,61.18 -137.98,93.31 339.45,-23.71 655.46,239.3 901.47,533.76 548.09,656.2 1391.62,407.67 1518.23,-422.91 99.86,-655.53 109.74,-1312.67 262.4,-1961.85 263.73,-1121.22 842.01,-2250.41 843.38,-3417.99 0.96,-851.59 -391.34,-1590.08 -1255.18,-1778.69z"/>
    </g>
    <g>
     <polygon class="fil0" points="7639.72,3817.67 8067.19,3817.67 8067.19,3390.07 7639.72,3390.07 "/>
     <polygon class="fil0" points="8370.51,3817.67 8797.96,3817.67 8797.96,3390.07 8370.51,3390.07 "/>
     <polygon class="fil0" points="6908.91,4548.5 7336.36,4548.5 7336.36,4120.89 6908.91,4120.89 "/>
     <path class="fil3" d="M6929.62 3796.95l386.02 0 0 -386.15 -386.02 0 0 386.15zm-20.72 20.72l427.47 0 0 -427.6 -427.47 0 0 427.6z"/>
     <polygon class="fil0" points="6178.07,5279.29 6605.55,5279.29 6605.55,4851.7 6178.07,4851.7 "/>
     <polygon class="fil0" points="6178.07,4548.5 6605.55,4548.5 6605.55,4120.89 6178.07,4120.89 "/>
     <polygon class="fil0" points="6178.07,3817.67 6605.55,3817.67 6605.55,3390.07 6178.07,3390.07 "/>
     <path class="fil0" d="M8675.69 4244.26c-178.61,17.87 -348.95,88.05 -486.44,204.37l78.6 78.55c35.16,35.17 35.16,91.38 0,126.58 -14.13,21.12 -35.17,28.15 -63.31,28.15 -21.08,0 -42.15,-7.02 -63.3,-28.15l-77.61 -77.67c-116.9,140.62 -187.51,307.63 -205.56,485.5l121.51 0c49.21,0 91.33,42.2 91.33,91.39 -6.97,49.29 -49.22,91.44 -91.33,91.44l-121.35 0c11.87,113.02 45.59,221.45 97.49,325.27 29.59,59.08 65.73,111.55 106.3,161.84l86.27 -86.21c35.17,-35.19 91.4,-35.19 126.58,0 35.17,35.09 35.17,91.41 0,126.51l-88.81 88.85c141.52,118.89 310.03,190.55 489.63,208.7l0 -128.78c0,-49.22 42.19,-91.34 91.42,-91.34 49.21,0 91.39,42.12 91.39,91.34l0 128.78c180.38,-18.08 352.25,-89.48 490.41,-207.92l-89.58 -89.63c-35.17,-35.1 -35.17,-91.42 0,-126.51 35.17,-35.19 91.42,-35.19 126.59,0l87.99 87.94c116.44,-141.75 186.09,-309.92 202.7,-488.83l-114.88 0c-49.22,0 -91.42,-42.15 -91.42,-91.44 0,-49.19 42.2,-91.39 91.42,-91.39l113.41 0c-19.27,-177.59 -90.33,-346.69 -207.08,-482.92l-75.06 75.08c-21.1,21.12 -42.25,28.15 -63.33,28.15 -21.11,0 -42.19,-7.02 -63.31,-28.15 -35.1,-35.2 -35.1,-91.41 0,-126.58l73.61 -73.55c-24.74,-20.18 -50.39,-38.53 -76.04,-53.2 -120.75,-90.5 -261.34,-141.14 -405.43,-156.04l0 114.09c0,49.22 -42.18,91.42 -91.39,91.42 -49.23,0 -91.42,-42.2 -91.42,-91.42l0 -114.21zm91.28 1091.66c-21.91,0 -43.89,-7.28 -65.75,-29.23l-365.42 -365.42c-36.55,-36.55 -36.55,-95.01 0,-131.55 36.54,-36.56 94.92,-36.56 131.49,0l321.6 321.56 306.99 -153.45c43.79,-21.97 102.29,-7.29 124.19,43.85 21.88,43.86 7.29,102.32 -43.85,124.2l-365.42 182.77c-14.57,7.28 -29.27,7.28 -43.83,7.28zm-949.06 365.35l-1981.55 0c-146.16,0 -270.42,-116.89 -270.42,-255.74l0 -2397.06 0 -380.08c0,-138.87 124.26,-255.76 270.42,-255.76l193.02 0c38.39,-161.04 180.82,-277.68 355.1,-277.68 174.26,0 316.74,116.64 355.17,277.68l22.3 0c40.92,-157.22 181.67,-270.39 353.36,-270.39 171.61,0 312.4,113.17 353.33,270.39l24.13 0c40.94,-157.22 181.74,-270.39 353.35,-270.39 171.68,0 312.44,113.17 353.36,270.39l24.13 0c40.92,-157.22 181.72,-270.39 353.33,-270.39 171.62,0 312.42,113.17 353.34,270.39l202.07 0c146.15,0 270.42,116.89 270.42,255.76l0 1588.96c51.09,36 97.32,73.76 138.86,121.22 204.59,204.59 321.55,482.31 321.55,774.58 0,292.38 -116.95,570.09 -321.55,774.78 -204.66,204.59 -482.3,321.49 -774.67,321.49 -292.32,0 -570.01,-116.9 -774.71,-321.49 -66.76,-66.85 -123.52,-143.79 -174.36,-226.65zm1394.88 -1551.24l0 -1006.56 -3464.14 0 0 2309.37c0,36.54 36.55,73.11 87.71,73.11l1899.89 0c-41.73,-118.32 -65.54,-243.54 -65.54,-372.81 0,-292.27 116.96,-569.99 321.56,-774.58 204.7,-204.67 482.39,-321.58 774.71,-321.58 154.34,0 304.83,31.01 445.82,93.04zm-2981.87 -1737.4l321.8 0c-30.6,-57 -90.54,-94.99 -160.85,-94.99 -70.39,0 -130.34,37.99 -160.95,94.99zm160.95 460.44c-51.26,0 -95.09,-43.87 -95.09,-95.01 0,-51.15 43.83,-95 95.09,-95 64.12,0 119.61,-31.61 152.1,-80.41l-707.6 0c-51.16,0 -87.71,29.19 -87.71,73.11l0 277.7 3464.14 0 0 -277.7c0,-36.57 -36.56,-73.11 -87.72,-73.11l-194.27 0c-39.26,157.26 -174.88,270.42 -346.54,270.42 -51.23,0 -95.02,-43.87 -95.02,-95.01 0,-51.15 43.79,-95 95.02,-95 64.12,0 119.66,-31.61 152.17,-80.41l-429.9 0 -106.53 0c-39.28,157.26 -174.94,270.42 -346.56,270.42 -51.2,0 -95.02,-43.87 -95.02,-95.01 0,-51.15 43.82,-95 95.02,-95 64.13,0 119.68,-31.61 152.2,-80.41l-429.85 0 -106.64 0c-39.26,157.26 -174.87,270.42 -346.56,270.42 -51.16,0 -94.91,-43.87 -94.91,-95.01 0,-51.15 43.75,-95 94.91,-95 64.19,0 119.72,-31.61 152.2,-80.41l-429.9 0 -108.29 0c-41.4,155.47 -175.59,270.42 -344.74,270.42zm572.88 -460.44l318.8 0c-30.61,-57 -90.57,-94.99 -160.95,-94.99 -68.08,0 -126.42,38.86 -157.85,94.99zm730.77 0l318.87 0c-30.64,-57 -90.64,-94.99 -160.95,-94.99 -68.09,0 -126.47,38.86 -157.92,94.99zm730.81 0l318.85 0c-30.63,-57 -90.61,-94.99 -160.92,-94.99 -68.14,0 -126.5,38.86 -157.93,94.99z"/>
     <path class="fil4" d="M7147.62 3791.72c-19.26,0 -38.61,-7.02 -57.88,-28.11l-128.7 -140.81c-32.19,-35.2 -32.19,-91.42 0,-126.63 32.19,-35.2 83.65,-35.2 115.86,0l70.72 77.37 225.28 -239.71c32.19,-35.22 83.71,-35.22 115.84,0 32.19,35.18 32.19,91.53 0,126.73l-283.16 303.05c-12.91,21.09 -32.19,28.11 -57.96,28.11z"/>
    </g>
   </g>
   <path class="fil2" d="M934.02 10999.87c-275.46,0 -500.04,-91.5 -673.73,-274 -173.7,-182.5 -260.3,-426.65 -260.3,-732.45 0,-292.1 83.17,-533.8 249.04,-724.62 165.87,-190.33 396.32,-285.74 690.87,-285.74 272.53,0 495.15,90.02 666.89,269.59 171.73,179.57 257.36,419.32 257.36,719.24 0,310.69 -86.61,559.74 -259.81,747.13 -173.2,187.39 -396.31,280.85 -670.31,280.85zm-2.44 -443.29c101.78,0 175.16,-44.53 219.68,-133.09 44.53,-88.56 67.03,-250.51 67.03,-485.86 0,-341.03 -91.98,-511.29 -275.47,-511.29 -198.15,0 -296.99,194.24 -296.99,583.22 0,364.51 95.41,547.01 285.74,547.01z"/>
   <path id="1" class="fil2" d="M3519.86 10970.51l-537.23 0 0 -193.76c-79.26,148.74 -209.91,223.12 -391.92,223.12 -167.82,0 -303.84,-65.57 -408.54,-196.69 -104.22,-131.61 -156.57,-322.43 -156.57,-572.45 0,-233.87 52.35,-419.8 157.55,-557.29 104.71,-137.49 243.66,-205.99 416.37,-205.99 144.34,0 263.23,54.8 356.69,164.89l0 -619.92 563.65 0 0 1958.1zm-563.65 -936.97c0,-130.63 -53.82,-196.2 -160.97,-196.2 -75.35,0 -124.28,41.59 -147.76,124.77 -23,83.17 -34.74,184.94 -34.74,305.3 0,235.83 59.69,353.75 179.57,353.75 45.5,0 84.15,-18.59 115.96,-55.77 31.8,-37.19 47.95,-94.43 47.95,-170.76l0 -361.09z"/>
   <path id="2" class="fil2" d="M4533.64 10999.87c-241.71,0 -433.5,-75.35 -575.89,-225.56 -142.38,-150.7 -213.81,-327.33 -213.81,-529.88 0,-217.73 74.37,-399.25 223.11,-544.57 148.25,-145.32 341.52,-217.73 579.8,-217.73 239.74,0 432.52,71.44 578.32,214.79 145.8,143.36 218.7,322.93 218.7,539.19 0,217.73 -73.88,399.25 -221.64,545.05 -147.76,145.81 -343.47,218.71 -588.6,218.71zm8.81 -346.41c88.06,0 142.38,-45.99 161.46,-138.47 19.57,-91.98 29.36,-188.37 29.36,-288.68 0,-137 -13.7,-235.34 -41.11,-295.52 -27.89,-60.18 -76.81,-90.52 -148.25,-90.52 -65.57,0 -113.51,31.32 -143.84,93.45 -30.34,62.14 -45.51,164.4 -45.51,306.78 0,167.34 15.66,277.91 46.97,331.73 31.31,54.31 78.28,81.22 140.91,81.22z"/>
   <path id="3" class="fil2" d="M6987.38 10970.51l-572.45 0 0 -918.38c0,-75.84 -11.25,-123.79 -34.74,-144.82 -23.48,-21.04 -52.35,-31.8 -87.58,-31.8 -103.73,0 -155.59,72.9 -155.59,218.22l0 876.79 -572.45 0 0 -1459.03 531.36 0 0 206.47c78.28,-157.06 218.21,-235.83 419.31,-235.83 106.17,0 195.22,20.55 268.61,61.16 72.9,40.61 125.26,92.96 156.57,157.55 31.32,64.58 46.97,176.63 46.97,336.13l0 933.55z"/>
   <path id="4" class="fil2" d="M8190.02 9511.49l0 369.89 -290.63 0 0 537.72c0,73.88 13.7,117.42 41.59,131.13 27.4,14.19 56.27,21.04 85.63,21.04 45.99,0 100.3,-7.83 163.42,-23.48l0 408.06c-112.53,21.52 -223.6,32.29 -332.22,32.29 -176.14,0 -305.31,-37.67 -388,-113.51 -82.2,-75.35 -123.79,-196.2 -123.79,-361.58l1.47 -170.76 0 -460.9 -217.24 0 0 -369.89 217.24 0 8.81 -475.58 543.1 -8.81 0 484.38 290.63 0z"/>
   <path id="5" class="fil2" d="M9092.74 10999.87c-241.71,0 -433.5,-75.35 -575.89,-225.56 -142.38,-150.7 -213.81,-327.33 -213.81,-529.88 0,-217.73 74.37,-399.25 223.11,-544.57 148.25,-145.32 341.52,-217.73 579.8,-217.73 239.74,0 432.52,71.44 578.32,214.79 145.8,143.36 218.7,322.93 218.7,539.19 0,217.73 -73.88,399.25 -221.64,545.05 -147.76,145.81 -343.47,218.71 -588.6,218.71zm8.81 -346.41c88.06,0 142.38,-45.99 161.46,-138.47 19.57,-91.98 29.36,-188.37 29.36,-288.68 0,-137 -13.7,-235.34 -41.11,-295.52 -27.89,-60.18 -76.81,-90.52 -148.25,-90.52 -65.57,0 -113.51,31.32 -143.84,93.45 -30.34,62.14 -45.51,164.4 -45.51,306.78 0,167.34 15.66,277.91 46.97,331.73 31.31,54.31 78.28,81.22 140.91,81.22z"/>
   <path id="6" class="fil0" d="M9941.64 10401.48l557.77 -100.3c46.97,158.53 166.85,237.79 361.09,237.79 150.7,0 226.05,-40.13 226.05,-120.36 0,-42.08 -17.61,-74.86 -52.36,-97.86 -34.73,-23.48 -96.87,-44.53 -186.9,-62.14 -342.5,-65.56 -562.67,-151.67 -660.04,-257.36 -97.36,-106.17 -145.8,-230.94 -145.8,-374.29 0,-184.46 69.97,-338.09 209.91,-460.41 139.93,-122.32 341.03,-183.48 603.77,-183.48 398.27,0 661.01,159.99 789.21,480.47l-496.13 150.69c-51.86,-131.13 -156.57,-196.69 -314.12,-196.69 -131.13,0 -196.69,40.61 -196.69,121.83 0,36.21 14.68,64.59 44.52,84.65 29.36,20.06 86.61,38.65 171.74,56.75 234.36,48.44 400.72,91.5 499.06,129.18 98.34,37.18 180.55,102.25 246.11,195.22 65.57,92.47 98.35,201.58 98.35,327.32 0,198.16 -80.24,359.13 -240.73,482.43 -160.48,123.3 -371.36,184.95 -632.15,184.95 -476.56,0 -771.1,-199.63 -882.66,-598.39z"/>
   <path id="7" class="fil0" d="M13269.22 9511.49l-571.97 1580.37c-44.04,119.88 -107.15,212.84 -188.86,279.87 -82.2,67.03 -208.92,100.79 -379.68,100.79 -41.11,0 -136.51,-3.91 -286.23,-11.74l0 -408.06c74.86,11.74 143.36,17.61 206.97,17.61 164.4,0 246.59,-35.23 246.59,-105.69 0,-23.98 -7.83,-56.76 -24.46,-98.84l-523.04 -1354.32 611.6 0 239.26 773.06 251.97 -773.06 417.84 0z"/>
   <path id="8" class="fil0" d="M13255.51 10556.59l452.09 -61.65c25.93,105.69 128.67,158.53 308.24,158.53 148.74,0 223.11,-28.87 223.11,-86.12 0,-24.95 -14.18,-44.04 -43.06,-58.22 -28.87,-13.7 -97.36,-27.89 -204.51,-42.08 -297.97,-41.1 -483.4,-105.19 -557.29,-192.77 -73.88,-87.09 -111.07,-184.46 -111.07,-291.61 0,-149.23 62.14,-270.08 186.9,-362.06 124.76,-92.47 288.19,-138.47 490.75,-138.47 354.73,0 580.78,127.22 678.63,382.13l-431.55 81.71c-40.6,-86.11 -126.23,-129.17 -256.38,-129.17 -61.65,0 -108.13,8.31 -138.47,24.95 -30.33,17.13 -45.5,33.28 -45.5,49.91 0,47.46 45.99,76.81 137.98,87.09 239.26,26.91 401.7,53.81 486.84,81.71 85.13,27.4 158.03,78.28 218.22,151.67 60.18,73.88 90.52,162.93 90.52,267.15 0,159.5 -66.55,286.22 -200.12,380.16 -133.57,93.45 -317.54,140.43 -551.9,140.43 -395.34,0 -639.49,-147.76 -733.43,-443.29z"/>
   <path class="fil2" d="M521.9 11779c0,110.78 93.65,122.77 160.46,131.91 37.69,5.14 66.81,11.42 66.81,33.69 0,24.55 -22.84,32.55 -61.1,32.55 -31.98,0 -54.25,-10.28 -64.53,-30.27 -8.56,-16.56 -16.56,-18.27 -33.69,-12.56l-53.67 19.42c-16.56,6.28 -21.7,14.28 -15.42,31.4 21.7,59.39 81.09,88.51 166.18,88.51 101.07,0 177.02,-46.25 177.02,-130.19 0,-107.93 -85.66,-123.92 -151.9,-133.05 -41.11,-5.14 -74.81,-10.28 -74.81,-34.84 0,-19.98 15.42,-29.69 54.25,-29.69 26.26,0 46.83,7.99 57.67,29.69 9.14,16.56 15.42,18.84 30.84,12l57.11 -24.56c17.13,-6.86 21.7,-15.42 13.7,-31.98 -26.84,-54.83 -74.81,-79.95 -159.32,-79.95 -109.07,0 -169.6,52.54 -169.6,127.91z"/>
   <path id="1" class="fil2" d="M903.93 11682.49l0 359.76c0,17.13 5.71,22.84 22.84,22.84l67.39 0c17.13,0 22.84,-5.71 22.84,-22.84l0 -359.76c0,-17.13 -5.71,-22.84 -22.84,-22.84l-67.39 0c-17.13,0 -22.84,5.71 -22.84,22.84z"/>
   <path id="2" class="fil2" d="M1062.11 11779c0,110.78 93.66,122.77 160.47,131.91 37.69,5.14 66.81,11.42 66.81,33.69 0,24.55 -22.84,32.55 -61.1,32.55 -31.98,0 -54.25,-10.28 -64.53,-30.27 -8.56,-16.56 -16.56,-18.27 -33.69,-12.56l-53.68 19.42c-16.56,6.28 -21.7,14.28 -15.42,31.4 21.7,59.39 81.1,88.51 166.18,88.51 101.07,0 177.02,-46.25 177.02,-130.19 0,-107.93 -85.66,-123.92 -151.9,-133.05 -41.11,-5.14 -74.81,-10.28 -74.81,-34.84 0,-19.98 15.42,-29.69 54.25,-29.69 26.26,0 46.83,7.99 57.67,29.69 9.14,16.56 15.42,18.84 30.84,12l57.11 -24.56c17.13,-6.86 21.7,-15.42 13.7,-31.98 -26.84,-54.83 -74.81,-79.95 -159.32,-79.95 -109.07,0 -169.61,52.54 -169.61,127.91z"/>
   <path id="3" class="fil2" d="M1729.1 11659.65l-282.67 0c-18.27,0 -23.98,6.28 -23.98,23.98l0 51.39c0,18.27 5.7,24.56 23.98,24.56l85.09 0 0 281.52c0,17.7 5.71,23.98 23.98,23.98l64.53 0c18.27,0 24.55,-6.28 24.55,-23.98l0 -281.52 84.52 0c18.27,0 24.55,-6.28 24.55,-24.56l0 -51.39c0,-17.7 -6.28,-23.98 -24.55,-23.98z"/>
   <path id="4" class="fil2" d="M2052.32 11659.65l-239.27 0c-18.27,0 -24.56,6.28 -24.56,23.98l0 357.47c0,17.7 6.28,23.98 24.56,23.98l244.41 0c17.7,0 23.98,-6.28 23.98,-23.98l0 -51.97c0,-18.27 -6.28,-23.98 -23.98,-23.98l-155.9 0 0 -54.82 120.49 0c18.28,0 24.56,-6.28 24.56,-24.56l0 -51.39c0,-17.7 -6.28,-23.98 -24.56,-23.98l-120.49 0 0 -50.82 150.76 0c18.27,0 24.56,-6.28 24.56,-24.56l0 -51.39c0,-17.7 -6.28,-23.98 -24.56,-23.98z"/>
   <path id="5" class="fil2" d="M2513.72 11659.07l-57.1 0c-18.84,0 -23.98,2.85 -31.98,18.27l-94.22 184.45 -94.22 -185.02c-7.99,-14.28 -13.7,-17.7 -33.69,-17.7l-53.67 0c-18.27,0 -24.56,5.71 -24.56,23.98l0 358.62c0,17.7 6.28,23.41 24.56,23.41l58.24 0c18.28,0 24.56,-5.71 24.56,-23.41l0 -81.09c0,-39.4 -2.85,-67.95 -23.41,-150.18l5.71 0c5.71,19.99 23.41,72.53 35.4,94.22l33.69 64.53c6.28,12.57 12,16.56 27.42,16.56l38.25 0c15.42,0 21.13,-5.14 27.42,-16.56l31.98 -64.53c11.99,-23.41 32.55,-75.38 38.26,-94.22l6.28 0c-21.7,75.95 -25.12,111.92 -25.12,149.61l0 81.66c0,17.7 5.7,23.41 23.98,23.41l62.24 0c18.28,0 24.56,-5.71 24.56,-23.41l0 -358.62c0,-18.27 -6.28,-23.98 -24.56,-23.98z"/>
   <path id="6" class="fil2" d="M2957.43 12041.68l-131.82 -363.18c-5.7,-14.85 -13.13,-18.84 -29.69,-18.84l-65 0c-16.56,0 -23.98,3.42 -29.7,19.99l-131.25 362.04c-5.71,15.42 -2.29,23.41 15.32,23.41l59.97 0c28.55,0 35.97,-6.28 41.68,-23.98l13.13 -41.11 123.25 0 13.13 41.11c4.57,17.7 13.13,23.98 42.83,23.98l61.58 0c17.13,0 22.27,-7.99 16.56,-23.41zm-180.92 -198.15l21.12 66.81 -71.28 0 21.03 -67.39c11.42,-38.26 10.85,-79.37 10.85,-79.37l5.7 0c0,0 1.14,41.11 12.57,79.95z"/>
   <path id="7" class="fil2" d="M3241.24 11659.65l-139.33 0c-18.27,0 -24.56,6.28 -24.56,23.98l0 357.47c0,17.7 6.28,23.98 24.56,23.98l139.33 0c112.49,0 175.32,-61.67 175.32,-159.89l0 -85.66c0,-98.79 -62.83,-159.89 -175.32,-159.89zm62.25 161.61l0 82.23c0,40.55 -19.99,61.67 -66.24,61.67l-46.83 0 0 -205.57 46.83 0c46.25,0 66.24,21.12 66.24,61.67z"/>
   <path id="8" class="fil2" d="M3727.78 11659.65l-239.27 0c-18.27,0 -24.56,6.28 -24.56,23.98l0 357.47c0,17.7 6.28,23.98 24.56,23.98l244.41 0c17.7,0 23.98,-6.28 23.98,-23.98l0 -51.97c0,-18.27 -6.28,-23.98 -23.98,-23.98l-155.9 0 0 -54.82 120.49 0c18.28,0 24.56,-6.28 24.56,-24.56l0 -51.39c0,-17.7 -6.28,-23.98 -24.56,-23.98l-120.49 0 0 -50.82 150.76 0c18.27,0 24.56,-6.28 24.56,-24.56l0 -51.39c0,-17.7 -6.28,-23.98 -24.56,-23.98z"/>
   <path id="9" class="fil2" d="M4220.03 11832.1l-144.49 0c-17.7,0 -23.98,6.28 -23.98,24.56l0 42.83c0,18.27 6.28,23.98 23.98,23.98l54.83 0 0 11.42c0,24.55 -23.42,38.82 -61.68,38.82 -45.12,0 -62.82,-19.42 -62.82,-59.39l0 -103.93c0,-39.98 17.7,-59.39 62.82,-59.39 31.98,0 49.11,11.42 59.39,37.12 6.28,17.7 13.13,21.12 30.84,15.41l61.1 -21.7c17.13,-5.71 21.12,-14.28 15.41,-30.83 -23.98,-63.96 -78.8,-99.93 -166.75,-99.93 -112.49,0 -175.88,61.1 -175.88,159.89l0 102.79c0,98.79 63.39,159.89 175.88,159.89 112.5,0 175.32,-61.1 175.32,-141.62l0 -75.38c0,-18.27 -5.71,-24.56 -23.98,-24.56z"/>
   <path id="10" class="fil2" d="M4552.94 11659.65l-239.27 0c-18.27,0 -24.56,6.28 -24.56,23.98l0 357.47c0,17.7 6.28,23.98 24.56,23.98l244.41 0c17.7,0 23.98,-6.28 23.98,-23.98l0 -51.97c0,-18.27 -6.28,-23.98 -23.98,-23.98l-155.9 0 0 -54.82 120.49 0c18.28,0 24.56,-6.28 24.56,-24.56l0 -51.39c0,-17.7 -6.28,-23.98 -24.56,-23.98l-120.49 0 0 -50.82 150.76 0c18.27,0 24.56,-6.28 24.56,-24.56l0 -51.39c0,-17.7 -6.28,-23.98 -24.56,-23.98z"/>
   <path id="11" class="fil2" d="M4612.34 11779c0,110.78 93.65,122.77 160.46,131.91 37.69,5.14 66.81,11.42 66.81,33.69 0,24.55 -22.84,32.55 -61.1,32.55 -31.98,0 -54.25,-10.28 -64.53,-30.27 -8.56,-16.56 -16.56,-18.27 -33.69,-12.56l-53.67 19.42c-16.56,6.28 -21.7,14.28 -15.42,31.4 21.7,59.39 81.09,88.51 166.18,88.51 101.08,0 177.03,-46.25 177.03,-130.19 0,-107.93 -85.67,-123.92 -151.91,-133.05 -41.11,-5.14 -74.81,-10.28 -74.81,-34.84 0,-19.98 15.42,-29.69 54.25,-29.69 26.26,0 46.83,7.99 57.67,29.69 9.14,16.56 15.42,18.84 30.84,12l57.11 -24.56c17.13,-6.86 21.7,-15.42 13.7,-31.98 -26.84,-54.83 -74.81,-79.95 -159.33,-79.95 -109.07,0 -169.6,52.54 -169.6,127.91z"/>
   <path id="12" class="fil2" d="M5279.33 11659.65l-282.67 0c-18.27,0 -23.98,6.28 -23.98,23.98l0 51.39c0,18.27 5.7,24.56 23.98,24.56l85.09 0 0 281.52c0,17.7 5.71,23.98 23.98,23.98l64.53 0c18.27,0 24.55,-6.28 24.55,-23.98l0 -281.52 84.52 0c18.27,0 24.55,-6.28 24.55,-24.56l0 -51.39c0,-17.7 -6.28,-23.98 -24.55,-23.98z"/>
   <path id="13" class="fil2" d="M5338.71 11682.49l0 359.76c0,17.13 5.71,22.84 22.84,22.84l67.39 0c17.13,0 22.84,-5.71 22.84,-22.84l0 -359.76c0,-17.13 -5.71,-22.84 -22.84,-22.84l-67.39 0c-17.13,0 -22.84,5.71 -22.84,22.84z"/>
   <path id="14" class="fil2" d="M5681.35 11537.26l-80.53 46.25c-9.71,5.7 -10.28,10.84 -1.72,21.7l15.99 18.75c5.7,8.09 12.57,6.95 26.27,2.85l103.36 -31.88c14.28,-5.14 13.7,-11.42 3.42,-22.84l-29.12 -33.12c-11.42,-12.56 -24.56,-9.14 -37.69,-1.71zm-181.6 273.72l0 102.79c0,98.79 62.82,159.89 175.89,159.89 112.49,0 175.31,-61.1 175.31,-159.89l0 -102.79c0,-98.79 -62.82,-159.89 -175.31,-159.89 -113.07,0 -175.89,61.1 -175.89,159.89zm238.14 -5.14l0 113.07c0,35.97 -22.85,54.82 -62.25,54.82 -39.98,0 -62.83,-18.84 -62.83,-54.82l0 -113.07c0,-35.97 22.85,-54.82 62.83,-54.82 39.4,0 62.25,18.84 62.25,54.82z"/>
   <path id="15" class="fil2" d="M6217.55 11659.65l-58.24 0c-18.27,0 -23.98,6.28 -23.98,23.98l0 93.65c0,58.25 7.42,85.66 25.69,144.47l-4.57 0c-18.27,-43.39 -22.84,-65.1 -47.96,-104.49l-93.66 -146.2c-5.14,-7.99 -10.84,-11.42 -23.98,-11.42l-67.38 0c-18.27,0 -24.56,6.28 -24.56,23.98l0 357.47c0,17.7 6.28,23.98 24.56,23.98l57.68 0c18.27,0 24.55,-6.28 24.55,-23.98l0 -93.08c0,-63.39 -6.85,-92.51 -18.84,-147.33l4.57 0c15.42,51.39 25.13,78.23 50.26,117.63l87.94 135.34c5.14,8 11.42,11.42 23.41,11.42l64.53 0c17.71,0 23.98,-6.28 23.98,-23.98l0 -357.47c0,-17.7 -6.28,-23.98 -23.98,-23.98z"/>
   <path id="16" class="fil2" d="M6565.32 11659.65l-139.33 0c-18.27,0 -24.56,6.28 -24.56,23.98l0 357.47c0,17.7 6.28,23.98 24.56,23.98l139.33 0c112.49,0 175.31,-61.67 175.31,-159.89l0 -85.66c0,-98.79 -62.82,-159.89 -175.31,-159.89zm62.25 161.61l0 82.23c0,40.55 -19.99,61.67 -66.24,61.67l-46.83 0 0 -205.57 46.83 0c46.25,0 66.24,21.12 66.24,61.67z"/>
   <path id="17" class="fil2" d="M7051.85 11659.65l-239.27 0c-18.27,0 -24.56,6.28 -24.56,23.98l0 357.47c0,17.7 6.28,23.98 24.56,23.98l244.41 0c17.7,0 23.98,-6.28 23.98,-23.98l0 -51.97c0,-18.27 -6.28,-23.98 -23.98,-23.98l-155.9 0 0 -54.82 120.49 0c18.28,0 24.56,-6.28 24.56,-24.56l0 -51.39c0,-17.7 -6.28,-23.98 -24.56,-23.98l-120.49 0 0 -50.82 150.76 0c18.27,0 24.56,-6.28 24.56,-24.56l0 -51.39c0,-17.7 -6.28,-23.98 -24.56,-23.98z"/>
   <path id="18" class="fil2" d="M7498.42 11659.65l-282.67 0c-18.27,0 -23.98,6.28 -23.98,23.98l0 51.39c0,18.27 5.7,24.56 23.98,24.56l85.09 0 0 281.52c0,17.7 5.71,23.98 23.98,23.98l64.53 0c18.27,0 24.55,-6.28 24.55,-23.98l0 -281.52 84.52 0c18.27,0 24.55,-6.28 24.55,-24.56l0 -51.39c0,-17.7 -6.28,-23.98 -24.55,-23.98z"/>
   <path id="19" class="fil2" d="M7668.02 11921.18l0 -237.55c0,-17.7 -6.28,-23.98 -24.56,-23.98l-64.53 0c-18.27,0 -23.98,6.28 -23.98,23.98l0 232.42c0,95.93 59.39,157.6 171.88,157.6 113.07,0 172.47,-61.67 172.47,-157.6l0 -232.42c0,-17.7 -6.28,-23.98 -24.56,-23.98l-64.54 0c-18.27,0 -23.98,6.28 -23.98,23.98l0 237.55c0,33.69 -19.99,52.54 -59.39,52.54 -39.4,0 -58.81,-18.84 -58.81,-52.54z"/>
   <path id="20" class="fil2" d="M8140.28 11659.65l-162.74 0c-18.27,0 -24.56,6.28 -24.56,23.98l0 357.47c0,17.7 6.28,23.98 24.56,23.98l64.53 0c18.27,0 23.98,-6.28 23.98,-23.98l0 -110.78 13.13 0c23.41,0 33.12,9.7 42.83,29.12l36.54 78.24c9.14,19.99 22.28,27.41 52.54,27.41l61.67 0c18.84,0 22.84,-12.56 14.85,-27.98l-51.39 -97.65c-4.57,-9.14 -9.71,-17.14 -15.42,-24.56 38.83,-21.7 61.67,-61.67 61.67,-117.63 0,-88.51 -55.96,-137.62 -142.19,-137.62zm25.13 137.05c0,23.41 -13.7,38.26 -37.69,38.26l-61.67 0 0 -75.38 61.67 0c24.56,0 37.69,14.28 37.69,37.12z"/>
   <path id="21" class="fil2" d="M8649.08 11659.65l-58.25 0c-18.27,0 -23.98,6.28 -23.98,23.98l0 93.65c0,58.25 7.42,85.66 25.69,144.47l-4.57 0c-18.27,-43.39 -22.84,-65.1 -47.96,-104.49l-93.66 -146.2c-5.14,-7.99 -10.84,-11.42 -23.98,-11.42l-67.38 0c-18.27,0 -24.56,6.28 -24.56,23.98l0 357.47c0,17.7 6.28,23.98 24.56,23.98l57.68 0c18.27,0 24.55,-6.28 24.55,-23.98l0 -93.08c0,-63.39 -6.85,-92.51 -18.84,-147.33l4.57 0c15.42,51.39 25.13,78.23 50.26,117.63l87.94 135.34c5.14,8 11.42,11.42 23.41,11.42l64.53 0c17.71,0 23.98,-6.28 23.98,-23.98l0 -357.47c0,-17.7 -6.28,-23.98 -23.98,-23.98z"/>
   <path id="22" class="fil2" d="M8720.47 11810.97l0 102.79c0,98.79 62.82,159.89 175.88,159.89 112.49,0 175.31,-61.1 175.31,-159.89l0 -102.79c0,-98.79 -62.82,-159.89 -175.31,-159.89 -113.07,0 -175.88,61.1 -175.88,159.89zm238.13 -5.14l0 113.07c0,35.97 -22.85,54.82 -62.25,54.82 -39.98,0 -62.82,-18.84 -62.82,-54.82l0 -113.07c0,-35.97 22.84,-54.82 62.82,-54.82 39.4,0 62.25,18.84 62.25,54.82z"/>
   <path id="23" class="fil2" d="M9107.06 11779c0,110.78 93.65,122.77 160.46,131.91 37.69,5.14 66.81,11.42 66.81,33.69 0,24.55 -22.84,32.55 -61.1,32.55 -31.98,0 -54.25,-10.28 -64.53,-30.27 -8.56,-16.56 -16.56,-18.27 -33.69,-12.56l-53.67 19.42c-16.56,6.28 -21.7,14.28 -15.42,31.4 21.7,59.39 81.09,88.51 166.18,88.51 101.08,0 177.03,-46.25 177.03,-130.19 0,-107.93 -85.67,-123.92 -151.91,-133.05 -41.11,-5.14 -74.81,-10.28 -74.81,-34.84 0,-19.98 15.42,-29.69 54.25,-29.69 26.26,0 46.83,7.99 57.67,29.69 9.14,16.56 15.42,18.84 30.84,12l57.11 -24.56c17.13,-6.86 21.7,-15.42 13.7,-31.98 -26.84,-54.83 -74.81,-79.95 -159.33,-79.95 -109.07,0 -169.6,52.54 -169.6,127.91z"/>
   <path id="24" class="fil2" d="M9582.18 11810.97l0 102.79c0,98.79 62.82,159.89 175.88,159.89 112.49,0 175.31,-61.1 175.31,-159.89l0 -102.79c0,-98.79 -62.82,-159.89 -175.31,-159.89 -113.07,0 -175.88,61.1 -175.88,159.89zm238.13 -5.14l0 113.07c0,35.97 -22.85,54.82 -62.25,54.82 -39.98,0 -62.82,-18.84 -62.82,-54.82l0 -113.07c0,-35.97 22.84,-54.82 62.82,-54.82 39.4,0 62.25,18.84 62.25,54.82z"/>
   <path id="25" class="fil2" d="M10145.23 11659.65l-139.34 0c-18.27,0 -24.56,6.28 -24.56,23.98l0 357.47c0,17.7 6.28,23.98 24.56,23.98l139.34 0c112.49,0 175.31,-61.67 175.31,-159.89l0 -85.66c0,-98.79 -62.82,-159.89 -175.31,-159.89zm62.25 161.61l0 82.23c0,40.55 -19.99,61.67 -66.24,61.67l-46.83 0 0 -205.57 46.83 0c46.25,0 66.24,21.12 66.24,61.67z"/>
   <path id="26" class="fil2" d="M10358.23 11810.97l0 102.79c0,98.79 62.82,159.89 175.88,159.89 112.49,0 175.31,-61.1 175.31,-159.89l0 -102.79c0,-98.79 -62.82,-159.89 -175.31,-159.89 -113.07,0 -175.88,61.1 -175.88,159.89zm238.13 -5.14l0 113.07c0,35.97 -22.85,54.82 -62.25,54.82 -39.98,0 -62.82,-18.84 -62.82,-54.82l0 -113.07c0,-35.97 22.84,-54.82 62.82,-54.82 39.4,0 62.25,18.84 62.25,54.82z"/>
   <path id="27" class="fil2" d="M11076.03 11659.65l-58.24 0c-18.27,0 -23.98,6.28 -23.98,23.98l0 93.65c0,58.25 7.42,85.66 25.69,144.47l-4.57 0c-18.27,-43.39 -22.84,-65.1 -47.96,-104.49l-93.66 -146.2c-5.15,-7.99 -10.85,-11.42 -23.99,-11.42l-67.38 0c-18.27,0 -24.56,6.28 -24.56,23.98l0 357.47c0,17.7 6.28,23.98 24.56,23.98l57.68 0c18.27,0 24.55,-6.28 24.55,-23.98l0 -93.08c0,-63.39 -6.85,-92.51 -18.84,-147.33l4.57 0c15.42,51.39 25.14,78.23 50.26,117.63l87.94 135.34c5.14,8 11.42,11.42 23.41,11.42l64.53 0c17.71,0 23.98,-6.28 23.98,-23.98l0 -357.47c0,-17.7 -6.28,-23.98 -23.98,-23.98z"/>
   <path id="28" class="fil2" d="M11442.08 11659.65l-282.67 0c-18.27,0 -23.98,6.28 -23.98,23.98l0 51.39c0,18.27 5.7,24.56 23.98,24.56l85.09 0 0 281.52c0,17.7 5.71,23.98 23.98,23.98l64.53 0c18.27,0 24.55,-6.28 24.55,-23.98l0 -281.52 84.52 0c18.27,0 24.55,-6.28 24.55,-24.56l0 -51.39c0,-17.7 -6.28,-23.98 -24.55,-23.98z"/>
   <path id="29" class="fil2" d="M11486.61 11810.97l0 102.79c0,98.79 62.82,159.89 175.89,159.89 112.49,0 175.31,-61.1 175.31,-159.89l0 -102.79c0,-98.79 -62.82,-159.89 -175.31,-159.89 -113.07,0 -175.89,61.1 -175.89,159.89zm238.14 -5.14l0 113.07c0,35.97 -22.85,54.82 -62.25,54.82 -39.98,0 -62.83,-18.84 -62.83,-54.82l0 -113.07c0,-35.97 22.84,-54.82 62.83,-54.82 39.4,0 62.25,18.84 62.25,54.82z"/>
   <path id="30" class="fil2" d="M11974.86 11659.65l-64.53 0c-18.27,0 -24.56,6.28 -24.56,23.98l0 357.47c0,17.7 6.28,23.98 24.56,23.98l226.13 0c17.7,0 23.98,-6.28 23.98,-23.98l0 -51.97c0,-18.27 -6.28,-23.98 -23.98,-23.98l-137.62 0 0 -281.52c0,-17.7 -5.71,-23.98 -23.98,-23.98z"/>
   <path id="31" class="fil2" d="M12360.89 11537.26l-80.52 46.25c-9.71,5.7 -10.28,10.84 -1.72,21.7l15.99 18.75c5.7,8.09 12.56,6.95 26.26,2.85l103.37 -31.88c14.28,-5.14 13.7,-11.42 3.42,-22.84l-29.12 -33.12c-11.42,-12.56 -24.56,-9.14 -37.7,-1.71zm-181.6 273.72l0 102.79c0,98.79 62.82,159.89 175.88,159.89 112.5,0 175.32,-61.1 175.32,-159.89l0 -102.79c0,-98.79 -62.82,-159.89 -175.32,-159.89 -113.07,0 -175.88,61.1 -175.88,159.89zm238.14 -5.14l0 113.07c0,35.97 -22.85,54.82 -62.25,54.82 -39.98,0 -62.82,-18.84 -62.82,-54.82l0 -113.07c0,-35.97 22.84,-54.82 62.82,-54.82 39.4,0 62.25,18.84 62.25,54.82z"/>
   <path id="32" class="fil2" d="M12895.97 11832.1l-144.48 0c-17.7,0 -23.98,6.28 -23.98,24.56l0 42.83c0,18.27 6.28,23.98 23.98,23.98l54.83 0 0 11.42c0,24.55 -23.41,38.82 -61.67,38.82 -45.12,0 -62.82,-19.42 -62.82,-59.39l0 -103.93c0,-39.98 17.7,-59.39 62.82,-59.39 31.98,0 49.11,11.42 59.39,37.12 6.28,17.7 13.13,21.12 30.84,15.41l61.1 -21.7c17.13,-5.71 21.12,-14.28 15.41,-30.83 -23.98,-63.96 -78.8,-99.93 -166.74,-99.93 -112.49,0 -175.88,61.1 -175.88,159.89l0 102.79c0,98.79 63.39,159.89 175.88,159.89 112.49,0 175.31,-61.1 175.31,-141.62l0 -75.38c0,-18.27 -5.71,-24.56 -23.98,-24.56z"/>
   <path id="33" class="fil2" d="M12965.06 11682.49l0 359.76c0,17.13 5.71,22.84 22.84,22.84l67.39 0c17.13,0 22.84,-5.71 22.84,-22.84l0 -359.76c0,-17.13 -5.71,-22.84 -22.84,-22.84l-67.39 0c-17.13,0 -22.84,5.71 -22.84,22.84z"/>
   <path id="34" class="fil2" d="M13126.1 11810.97l0 102.79c0,98.79 63.39,159.89 175.88,159.89 87.94,0 142.76,-35.97 166.74,-99.93 5.71,-16.56 1.72,-25.12 -15.41,-30.83l-61.1 -21.7c-17.14,-6.28 -23.98,-2.28 -30.84,15.42 -9.14,24.56 -27.41,37.12 -59.39,37.12 -45.12,0 -62.82,-19.42 -62.82,-59.39l0 -103.93c0,-39.98 17.7,-59.39 62.82,-59.39 31.98,0 49.11,11.42 59.39,37.12 6.28,17.7 13.13,20.55 30.84,15.41l61.1 -21.7c17.13,-5.71 21.12,-14.28 15.41,-30.83 -23.98,-63.96 -78.8,-99.93 -166.74,-99.93 -112.49,0 -175.88,61.1 -175.88,159.89z"/>
   <path id="35" class="fil2" d="M13497.85 11810.97l0 102.79c0,98.79 62.82,159.89 175.88,159.89 112.49,0 175.31,-61.1 175.31,-159.89l0 -102.79c0,-98.79 -62.82,-159.89 -175.31,-159.89 -113.07,0 -175.88,61.1 -175.88,159.89zm238.13 -5.14l0 113.07c0,35.97 -22.85,54.82 -62.25,54.82 -39.98,0 -62.82,-18.84 -62.82,-54.82l0 -113.07c0,-35.97 22.84,-54.82 62.82,-54.82 39.4,0 62.25,18.84 62.25,54.82z"/>
   <path id="36" class="fil2" d="M13884.46 11779c0,110.78 93.65,122.77 160.46,131.91 37.69,5.14 66.81,11.42 66.81,33.69 0,24.55 -22.84,32.55 -61.1,32.55 -31.98,0 -54.25,-10.28 -64.53,-30.27 -8.56,-16.56 -16.56,-18.27 -33.69,-12.56l-53.67 19.42c-16.56,6.28 -21.7,14.28 -15.42,31.4 21.7,59.39 81.09,88.51 166.18,88.51 101.07,0 177.02,-46.25 177.02,-130.19 0,-107.93 -85.66,-123.92 -151.9,-133.05 -41.11,-5.14 -74.81,-10.28 -74.81,-34.84 0,-19.98 15.42,-29.69 54.25,-29.69 26.26,0 46.83,7.99 57.67,29.69 9.14,16.56 15.42,18.84 30.84,12l57.11 -24.56c17.13,-6.86 21.7,-15.42 13.7,-31.98 -26.84,-54.83 -74.81,-79.95 -159.32,-79.95 -109.07,0 -169.6,52.54 -169.6,127.91z"/>
  </g>
 </g>
</svg>
